# xmcd CD database file
#
# Track frame offsets:
#	150
#	21437
#	48341
#	64807
#	93927
#	116557
#	150120
#	165970
#	189850
#
# Disc length: 2844 seconds
#
# Revision: 0
# Processed by: cddbd v1.5.2PL0 Copyright (c) Steve Scherf et al.
# Submitted via: CDex 1.70beta2
#
DISCID=5f0b1a09
DTITLE=Eple Trio - The Widening Sphere Of Influence
DYEAR=2008
DGENRE=Jazz
TTITLE0=River Song
TTITLE1=Dawn
TTITLE2=First Monday In October
TTITLE3=March Of The Mystery Men
TTITLE4=Black Water
TTITLE5=Eclipse
TTITLE6=Black Oak
TTITLE7=Triplex
TTITLE8=Buoy
EXTD=YEAR: 2008
EXTT0=
EXTT1=
EXTT2=
EXTT3=
EXTT4=
EXTT5=
EXTT6=
EXTT7=
EXTT8=
PLAYORDER=
